<svg xmlns="http://www.w3.org/2000/svg" viewBox="0 0 32 32" shape-rendering="crispEdges">
  <rect width="32" height="32" fill="none"/>
  <rect x="9" y="29" width="14" height="2" fill="#1a1c2c" opacity="0.5"/>
  <!-- robe -->
  <rect x="9" y="16" width="14" height="12" fill="#5d275d"/>
  <rect x="10" y="17" width="12" height="8" fill="#733681"/>
  <!-- head -->
  <rect x="11" y="8" width="10" height="9" fill="#ffcd75"/>
  <!-- hat -->
  <rect x="9" y="4" width="14" height="5" fill="#3b5dc9"/>
  <rect x="14" y="2" width="4" height="3" fill="#3b5dc9"/>
  <rect x="15" y="1" width="2" height="2" fill="#73eff7"/>
  <!-- beard -->
  <rect x="12" y="14" width="8" height="3" fill="#c0cbdc"/>
  <!-- eyes -->
  <rect x="13" y="10" width="2" height="2" fill="#b13e53"/>
  <rect x="17" y="10" width="2" height="2" fill="#b13e53"/>
  <!-- staff -->
  <rect x="23" y="3" width="2" height="22" fill="#824018"/>
  <rect x="21" y="2" width="6" height="4" fill="#73eff7"/>
  <rect x="22" y="3" width="4" height="2" fill="#f4f4f4"/>
  <!-- magic orb -->
  <rect x="22" y="6" width="4" height="4" fill="#b13e53"/>
  <rect x="23" y="7" width="2" height="2" fill="#ffcd75"/>
</svg>
