<svg xmlns="http://www.w3.org/2000/svg" viewBox="0 0 32 32" shape-rendering="crispEdges">
  <rect width="32" height="32" fill="none"/>
  <rect x="8" y="29" width="16" height="2" fill="#1a1c2c" opacity="0.5"/>
  <!-- legs -->
  <rect x="10" y="23" width="5" height="6" fill="#3d3d3d"/>
  <rect x="17" y="23" width="5" height="6" fill="#3d3d3d"/>
  <!-- body -->
  <rect x="9" y="13" width="14" height="11" fill="#6b6b6b"/>
  <rect x="10" y="14" width="12" height="7" fill="#8b8b8b"/>
  <!-- head -->
  <rect x="10" y="5" width="12" height="9" fill="#57d957"/>
  <rect x="9" y="7" width="2" height="3" fill="#38b764"/>
  <rect x="21" y="7" width="2" height="3" fill="#38b764"/>
  <!-- eyes -->
  <rect x="12" y="8" width="2" height="2" fill="#b13e53"/>
  <rect x="18" y="8" width="2" height="2" fill="#b13e53"/>
  <!-- tusks -->
  <rect x="13" y="12" width="2" height="2" fill="#f4f4f4"/>
  <rect x="17" y="12" width="2" height="2" fill="#f4f4f4"/>
  <!-- axe -->
  <rect x="23" y="8" width="2" height="16" fill="#5d4037"/>
  <rect x="21" y="6" width="6" height="5" fill="#94b0b2"/>
  <rect x="22" y="7" width="4" height="3" fill="#c0cbdc"/>
</svg>
