<svg xmlns="http://www.w3.org/2000/svg" viewBox="0 0 160 40" shape-rendering="crispEdges" preserveAspectRatio="none">
  <rect width="160" height="40" fill="#1a1c2c"/>
  <!-- ground strip -->
  <rect y="32" width="160" height="8" fill="#266218"/>
  <rect y="34" width="160" height="2" fill="#38b764"/>
  <!-- pixel trees -->
  <rect x="8" y="18" width="4" height="14" fill="#824018"/>
  <rect x="4" y="10" width="12" height="10" fill="#266218"/>
  <rect x="6" y="8" width="8" height="4" fill="#38b764"/>
  <rect x="36" y="20" width="4" height="12" fill="#824018"/>
  <rect x="32" y="14" width="12" height="8" fill="#266218"/>
  <rect x="34" y="12" width="8" height="3" fill="#38b764"/>
  <rect x="70" y="16" width="4" height="16" fill="#824018"/>
  <rect x="66" y="8" width="12" height="10" fill="#266218"/>
  <rect x="68" y="6" width="8" height="4" fill="#57d957"/>
  <rect x="110" y="20" width="4" height="12" fill="#824018"/>
  <rect x="106" y="12" width="12" height="10" fill="#266218"/>
  <rect x="108" y="10" width="8" height="4" fill="#38b764"/>
  <rect x="140" y="18" width="4" height="14" fill="#824018"/>
  <rect x="136" y="10" width="12" height="10" fill="#266218"/>
  <rect x="138" y="8" width="8" height="4" fill="#38b764"/>
  <!-- rocks -->
  <rect x="52" y="30" width="6" height="4" fill="#566c86"/>
  <rect x="92" y="31" width="8" height="3" fill="#566c86"/>
  <rect x="124" y="30" width="5" height="4" fill="#566c86"/>
</svg>
